<svg id="Layer_1" data-name="Layer 1" xmlns="http://www.w3.org/2000/svg" viewBox="0 0 64 64"><defs><style>.cls-1{fill:#f3e6e0;}.cls-2{fill:#d8dfe9;}.cls-3{fill:#e0b9a0;}.cls-4{fill:#d8ae98;}.cls-5{fill:#333;}.cls-6,.cls-7,.cls-8,.cls-9{fill:none;stroke:#333;stroke-linejoin:round;}.cls-6,.cls-7,.cls-8{stroke-linecap:round;}.cls-6{stroke-width:1.59px;}.cls-7,.cls-9{stroke-width:2px;}.cls-8{stroke-width:1.5px;}</style></defs><title>avatar-asian-business-woman</title><path class="cls-1" d="M31.91,60.53h.3a61.68,61.68,0,0,0,26-5.83l-2.37-5.55c-.71-2-3.7-3.56-6.63-3.56l-33-.24c-2.92,0-7.71,1.59-8.42,4.42l-2,5A61.68,61.68,0,0,0,31.91,60.53Z"/><path class="cls-2" d="M38.55,42.46H25.66s-4.29,4.67-2,9.9S31.94,61,31.94,61s6.23-3.56,8.54-8.79S38.55,42.46,38.55,42.46Z"/><path class="cls-3" d="M43.68,44.65c-1.64-.47-4.55-1.75-5.28-3v-6.8H25.62V41.6c-.82,1.52-3.43,2.68-5.31,3.05l2.19.81a27.54,27.54,0,0,0,19.31-.1Z"/><path class="cls-4" d="M38.39,41.63v-6.8H25.62v2.32L35.47,47c3.41-.76,3-.2,7-2.81C40.85,43.77,39.12,42.9,38.39,41.63Z"/><path class="cls-3" d="M46.65,20.33a2.73,2.73,0,0,0-2-.58c0-.76-.13-1.53-.24-2.33C43.63,12.38,40,6.49,32,6.49S20.39,12.38,19.66,17.43c-.12.8-.2,1.56-.24,2.33a2.75,2.75,0,0,0-2,.58c-1,.83-1.4,2.33-1,4.12a6.32,6.32,0,0,0,4.13,4.86l.93.28c1.46,6.92,8.07,10,10.6,10s9.2-3.07,10.66-10l.87-.29a6.32,6.32,0,0,0,4.13-4.86C48.05,22.67,47.68,21.16,46.65,20.33Z"/><path class="cls-4" d="M46.65,20.33a2.73,2.73,0,0,0-2-.58c0-.76-.13-1.53-.24-2.33-.65-4.52-3.68-9.7-10-10.73l-.19,1a68.93,68.93,0,0,0-3.51,22.69,88.88,88.88,0,0,0,.45,9.14,4.93,4.93,0,0,0,.91.11c2.53,0,9.2-3.07,10.66-10l.87-.29a6.32,6.32,0,0,0,4.13-4.86C48.05,22.67,47.68,21.16,46.65,20.33Z"/><ellipse class="cls-5" cx="27.28" cy="25" rx="1.5" ry="0.99"/><ellipse class="cls-5" cx="36.55" cy="25" rx="1.5" ry="0.99"/><path class="cls-6" d="M32,46.56l-3,5s-7-2-9-7a11.81,11.81,0,0,0,4.89-2.1c.47.76,2.18,2.48,7.11,4.11"/><path class="cls-2" d="M32,46.56l-3,5s-7-2-9-7a11.81,11.81,0,0,0,4.89-2.1c.47.76,2.18,2.48,7.11,4.11"/><path class="cls-2" d="M32,46.56l3,5s7-2,9-7a11.81,11.81,0,0,1-4.89-2.1c-.47.76-2.18,2.48-7.11,4.11"/><path class="cls-7" d="M32,46.56l-3,5s-7-2-9-7a11.81,11.81,0,0,0,4.89-2.1c.47.76,2.18,2.48,7.11,4.11"/><path class="cls-7" d="M32,46.56l3,5s7-2,9-7a11.81,11.81,0,0,1-4.89-2.1c-.47.76-2.18,2.48-7.11,4.11"/><path class="cls-1" d="M31,60.73c-1.1-1.08-2.88-2.82-4.45-4.39a10.14,10.14,0,0,1-3.56-7.61c0-2.63,1.9-4.84,2.68-6.81V37.84a26.11,26.11,0,0,0-9.73,11.52l6,6.43-2.73,3.65A62.16,62.16,0,0,0,31,60.73Z"/><path class="cls-7" d="M31,60.56s-2-2-4.5-4.45a10.14,10.14,0,0,1-3.56-7.61c0-2.63,1.9-4.62,2.68-6.59V37.84a25.8,25.8,0,0,0-9.73,11.3l6,6.43-2.73,3.65"/><path class="cls-1" d="M38.39,38.78,38.23,42c.78,2,2.84,3.88,2.84,6.51a10.14,10.14,0,0,1-3.56,7.61c-1.56,1.56-3.35,3.31-4.45,4.39A62.1,62.1,0,0,0,45,59.14l-2.9-3.58,6-6.43C47,46.45,44,42.34,38.39,38.78Z"/><path class="cls-7" d="M33,60.56s2-2,4.5-4.45a10.14,10.14,0,0,0,3.56-7.61c0-2.63-1.9-3.9-2.67-5.87V37.84a25.8,25.8,0,0,1,9.73,11.3l-6,6.43L45,59.14"/><circle class="cls-5" cx="32.01" cy="51.39" r="0.75"/><circle class="cls-5" cx="32.01" cy="55.31" r="0.75"/><line class="cls-8" x1="30.04" y1="58.94" x2="30.04" y2="49.84"/><path class="cls-9" d="M32,5.79c-7.95,0-11.62,5.89-12.35,10.93-.12.8-.2,1.57-.24,2.33-.76-.08-.48.91-.86,1.28a3.72,3.72,0,0,0-.69,3.34,5,5,0,0,0,2.78,3.93l.7,1.29c1.46,6.92,6.12,10.7,10.66,10.7s9.2-3.78,10.66-10.7l.78-.29a6.12,6.12,0,0,0,3.44-4.86A4.6,4.6,0,0,0,46,19.63,1.42,1.42,0,0,0,44.6,19c0-.76-.13-1.53-.24-2.33C43.63,11.68,40,5.79,32,5.79Z"/><path class="cls-5" d="M47.4,12.29c-2.29-4.92-4.79-6.49-7.28-6.53A.24.24,0,0,1,40,5.7C38.17,4,36.41,3,30.9,3,20.39,3,14,15.42,13.74,22.5a.25.25,0,0,0,.4.21l2-1.38a.25.25,0,0,1,.36.32,20.81,20.81,0,0,0-1.79,7.64.25.25,0,0,0,.42.2,10.52,10.52,0,0,1,1.7-1.44.23.23,0,0,1,.35.18,18.61,18.61,0,0,0,4.08,9.07L24,34.62,23.2,31c-.58-7,9.24-13.49,15.71-18.83l-.05,1.11A8.54,8.54,0,0,1,42,19.53v4.74a.25.25,0,0,0,.43.18l1.15-1.15a.25.25,0,0,1,.43.18v1.4c0,1,0,2.29-1.07,2.85a19.31,19.31,0,0,1-3.16,7.09l2.91,2.49c1.05-1,5.62-5.7,6-11.48a.24.24,0,0,1,.4-.18l.92.73a.25.25,0,0,0,.41-.18A30.23,30.23,0,0,0,47.4,12.29Z"/><path class="cls-7" d="M58.24,54.68a61.92,61.92,0,0,1-26.3,5.82A62.53,62.53,0,0,1,5.76,54.73"/><path class="cls-7" d="M45.82,45l4.82.83A8.24,8.24,0,0,1,56.82,51c.57,1.52,1.05,2.76,1.41,3.68"/><path class="cls-7" d="M18.2,45l-4.82.83A8.24,8.24,0,0,0,7.19,51c-.58,1.55-1.07,2.8-1.43,3.72"/></svg>