<svg id="Layer_1" data-name="Layer 1" xmlns="http://www.w3.org/2000/svg" viewBox="0 0 64 64"><defs><style>.cls-1{fill:#fbd3ca;}.cls-2{fill:#f3cac2;}.cls-3{fill:#d6edf5;}.cls-4{fill:#333;}.cls-5,.cls-6,.cls-8{fill:none;}.cls-5,.cls-6,.cls-8,.cls-9{stroke:#333;}.cls-5{stroke-linecap:round;}.cls-5,.cls-6,.cls-9{stroke-linejoin:round;}.cls-5,.cls-6{stroke-width:2px;}.cls-7{fill:#f5cac1;}.cls-8{stroke-miterlimit:10;}.cls-8,.cls-9{stroke-width:1.5px;}.cls-9{fill:#444;}</style></defs><title>avatar-beard-shades-cool</title><rect class="cls-1" x="23.44" y="33.72" width="16" height="18.06"/><polygon class="cls-2" points="23.44 36.27 38.94 51.77 39.44 51.77 39.44 33.72 23.44 33.72 23.44 36.27"/><path class="cls-3" d="M56.25,49.84a6,6,0,0,0-4.86-4.77L43,43.59l-2.47-4.81L37,45.28l.17.27-5.72,8.1L25.7,45.74l.29-.46-3.5-6.5L20,43.6,12.51,45a6,6,0,0,0-4.78,4.77L6.42,55.66l10.73,3a54.23,54.23,0,0,0,28.64.16l11.8-3.16Z"/><circle class="cls-4" cx="34.69" cy="54.66" r="0.75"/><path class="cls-5" d="M57.36,54.68l-1.11-4.84a6,6,0,0,0-4.86-4.78L43,43.6m-2.48-4.83L37,45.28l3.21,5a.25.25,0,0,0,.45-.06L43,43.6ZM20,43.6,12.5,45a6,6,0,0,0-4.78,4.77L6.47,55.42"/><line class="cls-6" x1="31.44" y1="53.65" x2="25.99" y2="45.28"/><path class="cls-5" d="M37,45.28l-4.71,6.56a3.43,3.43,0,0,0-.84,2.25v5.63"/><path class="cls-5" d="M57.42,55a61.71,61.71,0,0,1-26,5.7,61.73,61.73,0,0,1-25-5.24"/><path class="cls-6" d="M22.49,38.78,20,43.6l2.35,6.66a.25.25,0,0,0,.45.06l3.21-5Z"/><path class="cls-4" d="M43,7.33a19.47,19.47,0,0,0-9.67-2.1l4-1.5c-18.48-2.22-17,5.56-17,5.56l-1.86,1.38c-1.85,1.38-1.54,3-1.54,5.24,0,4,2.27,5.05,4.54,8.59V18.95a4.08,4.08,0,0,1,1.7-3.6l-2.83-1a20.35,20.35,0,0,1,7-.33c2.44.43,4.06.66,4.87.76-1.77-1.48-2.62-1.67-5-2.8,2.38.34,6.1,1.18,8.15,3.2a13.28,13.28,0,0,0,4.31,2.46A26.67,26.67,0,0,1,37,14.52c5,.61,4.27,3.4,4.27,10,2.27-3.53,4.54-4.07,4.54-8.08V10.73C45.8,8.56,43.86,7.77,43,7.33Z"/><line class="cls-6" x1="23.44" y1="35.66" x2="23.44" y2="40.66"/><line class="cls-6" x1="39.44" y1="35.66" x2="39.44" y2="40.66"/><path class="cls-1" d="M31.36,39.65A8.17,8.17,0,0,1,28,39.19c-3.34-1.76-6.61-5.63-6.61-7.94v-2a4.73,4.73,0,0,1-2.77-3.65c-.46-2.18-.23-3.94,1.77-3.94v-3c0-5,3.06-10.07,11-10.07s11,5.1,11,10.07v3c2,0,2.23,1.76,1.77,3.94a4.73,4.73,0,0,1-2.77,3.65v2c0,2.32-3.27,6.19-6.61,7.94A8.17,8.17,0,0,1,31.36,39.65Z"/><path class="cls-1" d="M31.36,39.65A8.17,8.17,0,0,1,28,39.19c-3.34-1.76-6.61-5.63-6.61-7.94v-2a4.73,4.73,0,0,1-2.77-3.65c-.46-2.18-.23-3.94,1.77-3.94v-3c0-5,3.06-10.07,11-10.07s11,5.1,11,10.07v3c2,0,2.23,1.76,1.77,3.94a4.73,4.73,0,0,1-2.77,3.65v2c0,2.32-3.27,6.19-6.61,7.94A8.17,8.17,0,0,1,31.36,39.65Z"/><path class="cls-2" d="M42.36,21.66v-3c0-5-3.06-10.07-11-10.07-.54,0-1,0-1.54.07a60.49,60.49,0,0,0-3.45,20.85,75.81,75.81,0,0,0,.5,9,12.71,12.71,0,0,0,1.1.66,8.17,8.17,0,0,0,3.39.46,8.17,8.17,0,0,0,3.39-.46c3.34-1.76,6.61-5.63,6.61-7.94v-2a4.73,4.73,0,0,0,2.77-3.65C44.59,23.42,44.36,21.66,42.36,21.66Z"/><path class="cls-7" d="M42.83,18.87v1.28H41.76c-8.23,0-11.41-3.11-11.83-3.57l-.05-.06c-1.26,1.57-.42,4.32-.42,4.32-2.82-1-3.81-2.61-4.18-3.48a20.9,20.9,0,0,1-1.1-3.24c-.28-1.35,4-2.63,4-2.63l11.82,3Z"/><path class="cls-7" d="M25.36,14.66s-3.84,1.9-4,6l.5,4.59.19-3.36a6.21,6.21,0,0,1,3.31-5.23Z"/><path class="cls-6" d="M42.36,21.66c2,0,2.23,1.76,1.77,3.94a5.39,5.39,0,0,1-2.77,4.06v1.59c0,2.32-3.27,6.19-6.61,7.94a8.17,8.17,0,0,1-3.39.46A8.17,8.17,0,0,1,28,39.19c-3.34-1.76-6.61-5.63-6.61-7.94V29.66a5.39,5.39,0,0,1-2.77-4.06c-.46-2.18-.23-3.94,1.77-3.94v-3c0-5,3.06-10.07,11-10.07s11,5.1,11,10.07"/><path class="cls-4" d="M39.58,31a2,2,0,0,1-.79,1l-2.43,1.62-1-1v2a1,1,0,0,1-1,1h-.6a.4.4,0,0,1-.4-.4.6.6,0,0,0-.6-.6H30a.6.6,0,0,0-.6.6.4.4,0,0,1-.4.4h-.6a1,1,0,0,1-1-1v-2l-1,1L23.94,32a2,2,0,0,1-.79-1l-1.3-3.89a.25.25,0,0,0-.49.08v5.46A17.91,17.91,0,0,0,27.54,39a6.09,6.09,0,0,0,2.82.7h2a6.09,6.09,0,0,0,2.82-.7,17.91,17.91,0,0,0,6.18-6.3V27.2a.25.25,0,0,0-.49-.08Z"/><path class="cls-6" d="M36.36,34.66V33.15a2,2,0,0,0-1.49-1.93,15.12,15.12,0,0,0-3.51-.57,15.12,15.12,0,0,0-3.51.57,2,2,0,0,0-1.49,1.93v1.51"/><path class="cls-4" d="M41.36,20.18v4.52c1.5-3.59,3-3,3-7.46C44.36,9.82,36.95,5,29.67,5a15.87,15.87,0,0,0-5.37.93A7.87,7.87,0,0,1,27.09,7.4a2.15,2.15,0,0,1,.16.28l-.62,0a8.49,8.49,0,0,0-5.5,2h2.32s-5.09,1.3-5.09,7.61c0,4.42,1.5,3.87,3,7.46V20.84c0-4.13,3.14-5.11,3.14-5.11s.31,2.63,4.43,4.13c0,0-.84-2.77.42-4.35l.05.06c.43.46,3.62,3.59,11.91,3.59H42S42.24,19.64,41.36,20.18Z"/><circle class="cls-4" cx="36.11" cy="25.14" r="1"/><circle class="cls-4" cx="26.61" cy="25.14" r="1"/><path class="cls-8" d="M29.94,24.27a2.36,2.36,0,0,1,2.85,0"/><path class="cls-9" d="M23.77,22.79h4.72a1.38,1.38,0,0,1,1,.4,1.49,1.49,0,0,1,.2,1.88l-1.11,1.66a1.87,1.87,0,0,1-1.56.83H25a2.66,2.66,0,0,1-2.66-2.66v-.65A1.46,1.46,0,0,1,23.77,22.79Z"/><path class="cls-9" d="M39,22.79H34.24a1.38,1.38,0,0,0-1,.4,1.49,1.49,0,0,0-.2,1.88l1.11,1.66a1.87,1.87,0,0,0,1.56.83h2.06a2.66,2.66,0,0,0,2.66-2.66v-.65A1.46,1.46,0,0,0,39,22.79Z"/></svg>