<svg id="Layer_1" data-name="Layer 1" xmlns="http://www.w3.org/2000/svg" viewBox="0 0 64 64"><defs><style>.cls-1{fill:#f5e3bf;}.cls-2{fill:#fc5d4f;}.cls-10,.cls-11,.cls-3,.cls-6,.cls-8{fill:none;stroke-linejoin:round;}.cls-3,.cls-6,.cls-8{stroke:#333;}.cls-10,.cls-11,.cls-3,.cls-6{stroke-linecap:round;}.cls-3,.cls-8{stroke-width:2px;}.cls-4{fill:#e0b9a0;}.cls-5{fill:#d6b19d;}.cls-10,.cls-11,.cls-6{stroke-width:1.5px;}.cls-10,.cls-6{stroke-dasharray:0.25 2.5;}.cls-7{fill:#333;}.cls-9{fill:#face5a;}.cls-10,.cls-11{stroke:#face5a;}.cls-11{stroke-dasharray:0.06 1.51;}.cls-12{fill:#9d0c47;}</style></defs><title>avatar-indian-bengali-woman</title><path class="cls-1" d="M54.55,48.44a6.39,6.39,0,0,0-6.18-4.91H15.83a6.39,6.39,0,0,0-6.18,4.91l-1.32,7,.87.37C25.58,62,40.89,62,55.67,55.43Z"/><path class="cls-2" d="M55.42,55.52l-.87-7a6.37,6.37,0,0,0-6.18-4.83l-6.76-1.8-9.35,6.54L19.68,58.95C32.54,61.2,44.31,60.33,55.42,55.52Z"/><path class="cls-3" d="M55.67,55.78l-1.12-7.42c-.44-2.93-3.51-4.94-6.44-4.94H16c-2.92,0-5.89,2-6.38,4.94L8.33,55.69"/><path class="cls-4" d="M43.78,43.53c-1.64-.47-4.55-1.75-5.28-3V26.31H25.73V40.48c-.82,1.52-3.43,2.68-5.31,3.05a13.9,13.9,0,0,0,23.37,0Z"/><path class="cls-5" d="M38.5,40.51V26.31H25.73V40.41l9.14,9.2a13.44,13.44,0,0,0,8.91-6.08C42.14,43.06,39.22,41.78,38.5,40.51Z"/><path class="cls-3" d="M20.42,43.53a13.9,13.9,0,0,0,23.37,0"/><path class="cls-3" d="M26.11,37.35v3.07c-.82,1.52-3.82,2.74-5.7,3.12"/><path class="cls-3" d="M43.78,43.53c-1.64-.47-4.94-1.75-5.67-3,0-.1,0-3.1,0-3.1"/><path class="cls-1" d="M27.31,60c7.19-6.23,18.33-14.83,20.8-16.54l-6-1.69c-3.4.83-15.76,11.35-22.62,17.12A62.76,62.76,0,0,0,27.31,60Z"/><path class="cls-6" d="M24.08,59c5-4.64,17.42-14.83,20.29-16.69"/><path class="cls-3" d="M20.15,58.73c5.34-5.58,18.34-15.49,21.46-17l6.5,1.69C45,45,34.39,53.57,27.53,59.88"/><ellipse class="cls-7" cx="22.28" cy="29.17" rx="3.64" ry="6.84" transform="translate(-6.85 6.84) rotate(-15.15)"/><ellipse class="cls-7" cx="41.84" cy="29.17" rx="6.84" ry="3.64" transform="matrix(0.26, -0.97, 0.97, 0.26, 2.75, 61.94)"/><path class="cls-4" d="M46.14,20.15a1.42,1.42,0,0,0-1.44-.58c0-.76-.13-1.53-.24-2.33-.73-5-4.4-10.93-12.35-10.93S20.49,12.21,19.76,17.25c-.12.8-.2,1.56-.24,2.33a1.42,1.42,0,0,0-1.44.58,4.6,4.6,0,0,0-.85,4.12c.41,2.34,1.91,5.14,4.27,5.14,1.46,6.92,6.6,10,10.6,10s9.15-3.07,10.6-10c2.36,0,3.86-2.8,4.27-5.14A4.6,4.6,0,0,0,46.14,20.15Z"/><path class="cls-5" d="M44.7,19.58c0-.76-.13-1.53-.24-2.33-.73-5-4.4-10.93-12.35-10.93-.28,0-.55,0-.82,0l-.4,1.45a58.89,58.89,0,0,0-3.51,20.89c0,2.6.11,6.55.3,9.54a9.5,9.5,0,0,0,4.43,1.18c4,0,9.15-3.07,10.6-10,2.36,0,3.86-2.8,4.27-5.14a4.6,4.6,0,0,0-.85-4.12A1.42,1.42,0,0,0,44.7,19.58Z"/><circle class="cls-7" cx="27.04" cy="25.88" r="1.33"/><circle class="cls-7" cx="37.16" cy="25.88" r="1.33"/><path class="cls-8" d="M46.14,20.15a1.42,1.42,0,0,0-1.44-.58c0-.76-.13-1.53-.24-2.33-.73-5-4.4-10.93-12.35-10.93S20.49,12.21,19.76,17.25c-.12.8-.2,1.56-.24,2.33a1.42,1.42,0,0,0-1.44.58,4.6,4.6,0,0,0-.85,4.12c.41,2.34,1.91,5.14,4.27,5.14,1.46,6.92,6.6,10,10.6,10s9.15-3.07,10.6-10c2.36,0,3.86-2.8,4.27-5.14A4.6,4.6,0,0,0,46.14,20.15Z"/><path class="cls-9" d="M19.85,38.27a9.8,9.8,0,0,1,.81-2.35.5.5,0,0,1,.92,0,9.8,9.8,0,0,1,.81,2.35,1.26,1.26,0,1,1-2.53,0Z"/><line class="cls-10" x1="21.11" y1="34.03" x2="21.11" y2="27.54"/><path class="cls-9" d="M41.85,38.27a9.8,9.8,0,0,1,.81-2.35.5.5,0,0,1,.92,0,9.8,9.8,0,0,1,.81,2.35,1.26,1.26,0,1,1-2.53,0Z"/><line class="cls-10" x1="43.11" y1="34.03" x2="43.11" y2="27.54"/><path class="cls-7" d="M47.33,14.15A5.57,5.57,0,0,0,46.84,13c-5-8.59-9.66-10.94-14.1-8.59a1.53,1.53,0,0,1-1.26,0C27,2.06,22.42,4.42,17.38,13a5.57,5.57,0,0,0-.49,1.14,15.34,15.34,0,0,0,.46,13.19c.18-.11.33-.22.5-.33l1.31-1a13.39,13.39,0,0,0,2.06-2.13l.85,2.15a.28.28,0,0,0,.54-.1V21.75c1.57-2.89,2.09-5.38,4.53-5.38a7.12,7.12,0,0,1,3.55.84,3,3,0,0,0,2.84,0,7.12,7.12,0,0,1,3.55-.84c2.44,0,3,2.49,4.53,5.38V26a.28.28,0,0,0,.54.1L43,23.92A13.39,13.39,0,0,0,45.06,26l1.31,1c.17.11.32.22.5.33A15.34,15.34,0,0,0,47.33,14.15Z"/><circle class="cls-11" cx="32.11" cy="15.77" r="2.5"/><line class="cls-10" x1="32.11" y1="10.83" x2="32.11" y2="4.94"/><path class="cls-12" d="M33,23.16a13.61,13.61,0,0,0-.55-1.47.39.39,0,0,0-.73,0,13.64,13.64,0,0,0-.56,1.47,1,1,0,1,0,1.84,0Z"/><circle class="cls-9" cx="32.11" cy="15.79" r="1"/><circle class="cls-9" cx="32.11" cy="20.21" r="0.75"/><path class="cls-3" d="M55.67,55.78a61.76,61.76,0,0,1-23.56,4.64A61.75,61.75,0,0,1,8.33,55.69"/></svg>