<svg id="Layer_1" data-name="Layer 1" xmlns="http://www.w3.org/2000/svg" viewBox="0 0 64 64"><defs><style>.cls-1{fill:#8999b2;}.cls-2{fill:#f3cac2;}.cls-3{fill:#e2bab5;}.cls-4{fill:#fbd3ca;}.cls-5{fill:#aaa;}.cls-6{fill:#333;}.cls-7{fill:#fff;}.cls-8{fill:none;stroke:#333;stroke-linecap:round;stroke-linejoin:round;stroke-width:2px;}</style></defs><title>avatar-albert-einstein-hair</title><path class="cls-1" d="M32,59.89a61.68,61.68,0,0,0,26-5.7L57,50.42a8,8,0,0,0-4.94-5.54l-10-3L22,41.86l-10,3A8,8,0,0,0,7,50.42L6,54.19A61.68,61.68,0,0,0,32,59.89Z"/><path class="cls-2" d="M36.5,42.44C36,43.57,34.2,44.1,32,44.1s-4-.53-4.5-1.66A11.49,11.49,0,0,1,24,39.57v8.9L25.46,50a8.86,8.86,0,0,0,13.08,0L40,48.47v-8.9A11.49,11.49,0,0,1,36.5,42.44Z"/><polygon class="cls-3" points="23.86 40.11 36.28 52.53 44.61 42.99 31.86 31.11 23.86 40.11"/><path class="cls-4" d="M42,25V20.89a4.55,4.55,0,0,0-2-4l1-1c-5.5-.5-4.68,2-9,2s-4.71-2.19-9.08-2.19L24,16.89c-2,.93-2,2.3-2,4v4c-2,0-2.52,1-2.52,4.13,0,2.39.34,4,2.66,4.83a11.73,11.73,0,0,0,1.07,4.23,8.8,8.8,0,0,0,4.3,4.3c.51,1,2.3,1.52,4.5,1.52s4-.48,4.5-1.52a9.86,9.86,0,0,0,3.58-3.23A11,11,0,0,0,42,33.43a4.88,4.88,0,0,0,2.58-4.58C44.58,26.41,44.33,24.49,42,25Z"/><path class="cls-2" d="M40.08,39.15A11,11,0,0,0,42,33.43a4.88,4.88,0,0,0,2.58-4.58c0-2.44-.24-4.36-2.58-3.88V20.89a4.55,4.55,0,0,0-2-4l1-1c-5.5-.5-4.68,2-9,2a10.61,10.61,0,0,1-1.22-.07,46.33,46.33,0,0,0-3,16.94c0,2,.07,5.41.2,8.22a6.82,6.82,0,0,0,4,.93c2.2,0,4-.48,4.5-1.52A9.86,9.86,0,0,0,40.08,39.15Z"/><path class="cls-5" d="M53.79,29.73c-1.28-2.33-2-4.43-3.79-6.34l3-2a18.66,18.66,0,0,1-3-4,9.79,9.79,0,0,0-5-5l3-2a23.63,23.63,0,0,0-10-2l1-3c-4.92,1-6,3-6,3s-7-3-16,1l4,1.5c-6,2-4.37,4.63-9.42,8.58l3.42.42c-3,4-2,6-5,10l4,1c-2,4.08-1,5-2,8l4-1s-.43,3.55-.7,5.71l4.89-1.84,3-3.68a11.73,11.73,0,0,1-1.07-4.23C19.82,33,19.48,31.4,19.48,29c0-3.22.81-4.48,2.52-5.27V20.89a5.39,5.39,0,0,1,3.21-4.56l-1.87-.77c4.38,0,4.35,2.32,8.67,2.32s3-2,9-2l-1.32.69A6.07,6.07,0,0,1,42,20.89V25c2.33-.48,2.79,2.49,2.5,4.92a5.43,5.43,0,0,1-2.64,4,9.5,9.5,0,0,1-1.78,5.3l2,2.29,1.86.46,4.19,1.51-1-6,3.45.8a40.07,40.07,0,0,0-.37-7.47Z"/><path class="cls-6" d="M16.29,43.72l-2-.24c.16-1.31.37-3.05.52-4.27l-3.89,1a.25.25,0,0,1-.3-.32c1.51-4.73.55-5.07,2-8.65l-4.05-.49a.25.25,0,0,1-.17-.4c3.91-5.21,2.5-5.84,4.86-9.69l-2.8-.43a.25.25,0,0,1-.15-.41c4.77-5.32,4.1-7,7.92-8.87L14.93,9.68a.25.25,0,0,1,0-.46c5.52-2.45,11.38-4.09,17.76-2,2.43-2.45,8.39-3.28,7.39-3.07a.25.25,0,0,1,.29.32l-1,3A38.28,38.28,0,0,1,50.9,10.59a.25.25,0,0,1,0,.45l-3.57,1.79c3.33,2.13,3,4.49,6.36,7.85l.65.65a.25.25,0,0,1,0,.38l-2.87,1.91c1.45,2.08,2,4.11,3,5.5l.63.86a.25.25,0,0,1-.13.39l-3.5,1.06c.33,2.91-.46,4.09.22,6.48L52,39.14a.25.25,0,0,1-.3.31l-3.18-.74.92,4.47-2,.4-1.54-7.53,3.47.81c-.26-2.5.49-2.7-.23-6.84l2.91-.88c-1.35-2.51-1-3-3.57-6l3-2c-4.27-4.88-1.6-5.7-8.92-8.07a.25.25,0,0,1,0-.47l4-1.64a32.83,32.83,0,0,0-9.87-1.67l.84-2.53c-2.9.92-3.43,1.8-4.06,2.8a20.13,20.13,0,0,0-13.58-.24L24,10.95c-8.38,2.79-6.2,2.73-10.09,7.76l2.9.44c-4.3,5.74-2.62,5.94-5.05,9.94l3.88.47c-2.37,4.84-1.72,4.85-2.26,8l3.81-1C17,37.57,16.58,41.28,16.29,43.72Z"/><circle class="cls-6" cx="36.31" cy="29.25" r="1.25"/><circle class="cls-6" cx="27.81" cy="29.25" r="1.25"/><path class="cls-5" d="M27,37.89l.69-1a1.89,1.89,0,0,1,2.62-.77,3.35,3.35,0,0,0,3.38,0,1.89,1.89,0,0,1,2.62.77l.69,1a14.55,14.55,0,0,1-5,1.48A15.75,15.75,0,0,1,27,37.89Z"/><path class="cls-6" d="M32,40.12a16.43,16.43,0,0,1-5.3-1.55l-.56-.25A.25.25,0,0,1,26,38l1-1.48a2.63,2.63,0,0,1,3.6-1,2.6,2.6,0,0,0,2.64,0,2.61,2.61,0,0,1,2-.26A2.71,2.71,0,0,1,37,36.55l1,1.38a.25.25,0,0,1-.09.37l-.52.26A15.34,15.34,0,0,1,32,40.12Zm-3.85-2.56A11.67,11.67,0,0,0,32,38.62a12.21,12.21,0,0,0,3.86-1l-.17-.23a1.29,1.29,0,0,0-.77-.67,1.12,1.12,0,0,0-.86.11,4.12,4.12,0,0,1-4.12,0,1.12,1.12,0,0,0-.86-.11,1.2,1.2,0,0,0-.73.6Z"/><path class="cls-6" d="M25.44,27.38a1,1,0,0,1-.71-1.71,4.45,4.45,0,0,1,3.15-1.28,1,1,0,0,1,0,2,2.23,2.23,0,0,0-1.71.69A1,1,0,0,1,25.44,27.38Z"/><path class="cls-6" d="M38.68,27.38a1,1,0,0,1-.71-.29,2.35,2.35,0,0,0-1.64-.69,1,1,0,0,1-1-1,1,1,0,0,1,1-1,4.34,4.34,0,0,1,3,1.28,1,1,0,0,1-.71,1.71Z"/><path class="cls-6" d="M32,44.89c-2.26,0-4.34-.92-5.22-2.27-4.27-2.32-5-4.67-5.49-7.49l-.05-.27c0-.18-.08-.39-.12-.61a3.25,3.25,0,0,1-.81-.4c-1.85-1.29-1.83-3.45-1.82-5v-.38c0-3.94,2.21-5,3.51-5v2c-.75,0-1.51.93-1.51,3v.4c0,1.57,0,2.74,1,3.37a1.65,1.65,0,0,0,.64.23,1,1,0,0,1,.9.9c0,.31.13.81.2,1.14l.06.32C23.64,37,24,38.89,28,41a1,1,0,0,1,.43.44A4.25,4.25,0,0,0,32,42.89a4.25,4.25,0,0,0,3.6-1.46A1,1,0,0,1,36,41c4-2.09,4.32-4,4.71-6.2l.06-.32c.07-.33.17-.83.2-1.14a1,1,0,0,1,.9-.9,1.61,1.61,0,0,0,.64-.23c.91-.64,1-1.8,1-3.37v-.4c0-2.07-.76-3-1.51-3v-2c1.3,0,3.51,1.05,3.51,5v.38c0,1.58,0,3.74-1.82,5a3.25,3.25,0,0,1-.81.4c0,.22-.08.43-.12.61l-.05.27c-.5,2.82-1.22,5.17-5.49,7.49C36.34,44,34.26,44.89,32,44.89Z"/><path class="cls-6" d="M58.21,55.16a1,1,0,0,1-.25,0,1,1,0,0,1-1-.76L56,50.66a7,7,0,0,0-4.32-4.85l-9.89-3a1,1,0,0,1,.57-1.92l10,3A9,9,0,0,1,58,50.18l.94,3.77A1,1,0,0,1,58.21,55.16Z"/><path class="cls-6" d="M6,55.19a1,1,0,0,1-.25,0,1,1,0,0,1-.73-1.21L6,50.18a9,9,0,0,1,5.55-6.24l10.11-3a1,1,0,1,1,.58,1.92l-10,3A7,7,0,0,0,8,50.66L7,54.43A1,1,0,0,1,6,55.19Z"/><path class="cls-7" d="M41,38.89l-3,7-6,5-6-5-2.95-7-3.05,5,2,7,1.66-1.79,1.76,1.76a9.23,9.23,0,0,0,13.09,0L40,48.89l2,2,2-7Z"/><path class="cls-6" d="M40.82,49.93A10.62,10.62,0,0,1,32,54.53h0a10.61,10.61,0,0,1-8.82-4.61,1,1,0,0,1,1.64-1.14,8.75,8.75,0,0,0,14.36,0,1,1,0,1,1,1.64,1.14Z"/><rect class="cls-6" x="28" y="44.48" width="2" height="7.8" transform="translate(-26.75 39.77) rotate(-50.27)"/><polygon class="cls-7" points="23.05 38.9 20.07 43.89 22.04 50.85 26 45.89 23.05 38.9"/><path class="cls-6" d="M22,51.85l-.2,0a1,1,0,0,1-.76-.71l-2-7a1,1,0,0,1,.1-.78l3-5a1,1,0,0,1,.93-.49,1,1,0,0,1,.85.61l2.95,7a1,1,0,0,1-.14,1l-4,5A1,1,0,0,1,22,51.85ZM21.15,44l1.32,4.67,2.37-3-2-4.62Z"/><polygon class="cls-7" points="41 38.89 43.93 43.89 41.96 50.85 38 45.89 41 38.89"/><path class="cls-6" d="M42,51.85a1,1,0,0,1-.78-.38l-4-5a1,1,0,0,1-.14-1l3-7a1,1,0,0,1,1.78-.11l2.93,5a1,1,0,0,1,.1.78l-2,7a1,1,0,0,1-.76.71Zm-2.8-6.11,2.37,3L42.85,44l-1.71-2.92Z"/><path class="cls-6" d="M31.59,53.66l-2-.45a4.45,4.45,0,0,1,1-1.91l.08-.08,6.64-6.06,1.35,1.48-6.59,6A2.44,2.44,0,0,0,31.59,53.66Z"/><path class="cls-6" d="M43,25.43V20.89a4.33,4.33,0,0,0-1.64-3.69,7.19,7.19,0,0,0-1.22-.72l3.3-.68L41.37,15c-3.29-1.32-4.62-.29-5.8.62A5,5,0,0,1,32,16.88a5,5,0,0,1-3.58-1.29c-1.17-.91-2.51-1.94-5.8-.62l-2.07.83,3.3.68a7.18,7.18,0,0,0-1.22.72A4.33,4.33,0,0,0,21,20.89v4.54l-.82.57a10.35,10.35,0,0,1,2.4,2.75.22.22,0,0,0,.42-.1V20.89c0-1.45.57-2.17,2.44-3.1L27,17a7.17,7.17,0,0,0,5,1.86A7.17,7.17,0,0,0,37,17l1.56.77c1.87.93,2.44,1.66,2.44,3.1v7.76a.22.22,0,0,0,.42.1A10.35,10.35,0,0,1,43.83,26Z"/><path class="cls-5" d="M21,20.89v3.55a1.38,1.38,0,0,0-1.62.49c-1.09,1.13-.72-2.94-.72-2.94Z"/><path class="cls-5" d="M43,20.89v3.55a1.38,1.38,0,0,1,1.62.49c1.09,1.13.72-2.94.72-2.94Z"/><path class="cls-8" d="M58,54.2a61.71,61.71,0,0,1-26,5.69A61.71,61.71,0,0,1,6,54.2"/></svg>