<svg id="Layer_1" data-name="Layer 1" xmlns="http://www.w3.org/2000/svg" viewBox="0 0 64 64"><defs><style>.cls-1{fill:#d9e5e8;}.cls-2{fill:#fbd3ca;}.cls-3{fill:#f3cac2;}.cls-4{fill:#333;}.cls-5{fill:#77a0d4;}.cls-6{fill:#eaddc7;}.cls-7,.cls-8{fill:none;}.cls-7,.cls-8,.cls-9{stroke:#333;stroke-linecap:round;stroke-width:2px;}.cls-7,.cls-9{stroke-linejoin:round;}.cls-8{stroke-miterlimit:10;}.cls-9{fill:#fff;}</style></defs><title>avatar-hillary-clinton-woman</title><path class="cls-1" d="M32,61.3a61.68,61.68,0,0,0,26-5.7l-.94-3.77a8,8,0,0,0-4.94-5.54l-10-2.47L22,43.79l-10,2.5A8,8,0,0,0,7,51.83L6.08,55.6A61.68,61.68,0,0,0,32,61.3Z"/><path class="cls-2" d="M45.37,24.32c-.23-.47-.51-.95-1.24-.87,0-10-5.45-14.22-12.14-14.22S19.86,13.48,19.86,23.45c-.73-.08-1,.4-1.24.87a6.35,6.35,0,0,0-.07,4.39c.47,1.67,1.42,4.38,3.07,4.38A8.63,8.63,0,0,0,24,37.67a4.42,4.42,0,0,0,3.51,2.05c1.1,1.25,2.76,1.47,4.53,1.47s3.43-.22,4.53-1.47A4.42,4.42,0,0,0,40,37.67a8.63,8.63,0,0,0,2.33-4.57c1.64,0,2.6-2.71,3.07-4.38A6.35,6.35,0,0,0,45.37,24.32Z"/><path class="cls-2" d="M45.37,24.32c-.23-.47-.51-.95-1.24-.87,0-10-5.45-14.22-12.14-14.22S19.86,13.48,19.86,23.45c-.73-.08-1,.4-1.24.87a6.35,6.35,0,0,0-.07,4.39c.47,1.67,1.42,4.38,3.07,4.38A8.63,8.63,0,0,0,24,37.67a4.42,4.42,0,0,0,3.51,2.05c1.1,1.25,2.76,1.47,4.53,1.47s3.43-.22,4.53-1.47A4.42,4.42,0,0,0,40,37.67a8.63,8.63,0,0,0,2.33-4.57c1.64,0,2.6-2.71,3.07-4.38A6.35,6.35,0,0,0,45.37,24.32Z"/><path class="cls-2" d="M43.67,44.3c-1.64-.47-4.55-1.75-5.28-3V27.08H25.62V41.25c-.82,1.52-3.43,2.68-5.31,3.05a13.9,13.9,0,0,0,23.37,0Z"/><path class="cls-3" d="M43.67,44.3c-1.64-.47-4.55-1.75-5.28-3,0,0,0-1,0-2.09A5.72,5.72,0,0,0,40,37.67a8.63,8.63,0,0,0,2.33-4.57c1.64,0,2.6-2.71,3.07-4.38a6.35,6.35,0,0,0-.07-4.39c-.23-.47-.51-.95-1.24-.87,0-10-5.45-14.22-12.14-14.22q-.71,0-1.39.06A61,61,0,0,0,26.9,31c0,2.28.08,5.5.23,8.38a7.14,7.14,0,0,1-.77-.57v3.51l8.07,8.1A14.12,14.12,0,0,0,43.67,44.3Z"/><circle class="cls-4" cx="27" cy="27.63" r="1.33"/><circle class="cls-4" cx="37" cy="27.63" r="1.33"/><path class="cls-4" d="M20.93,27.72l-2.61-3.95,1.41-.93.43.65v-.19h1.69v4.14A.5.5,0,0,1,20.93,27.72Z"/><path class="cls-4" d="M42.16,27.45V23.31h1.69v.19l.43-.65,1.41.93-2.61,3.95A.5.5,0,0,1,42.16,27.45Z"/><path class="cls-5" d="M37.9,31.84l-.63-1.4a.3.3,0,0,0-.55,0l-.64,1.4a1,1,0,0,0-.09.41,1,1,0,0,0,2,0A1,1,0,0,0,37.9,31.84Z"/><circle class="cls-4" cx="27" cy="27.63" r="1.33"/><path class="cls-6" d="M42.37,5.76c-2.82-2.13-7.14-1.17-7.14-1.17A11,11,0,0,0,22,5.34c-2.82,2.14-8.74,7.88-8,20.24a30.18,30.18,0,0,0,1.17,6.86,11.13,11.13,0,0,0,.7,5C17.27,41.6,22,43.79,22,43.79a7,7,0,0,0,3.61-2.53V39.2A5.7,5.7,0,0,1,24,37.67a8.65,8.65,0,0,1-2.33-4.57,1.58,1.58,0,0,1-.67-.17h0c-1.24-.61-2-2.79-2.39-4.22a9.62,9.62,0,0,1-.34-1.93l4.22-3.43c4.7-2.94,4.66-5.1,6.83-7.76a12.93,12.93,0,0,1,3.13-2.85c1.48.16,4.16.78,5.65,2.35,2.14,2.24,1.61,3,3.18,6.8a14.3,14.3,0,0,0,4.38,6l0,.12c0,.23-.1.45-.16.66C45,30.38,44,33.09,42.37,33.09A8.63,8.63,0,0,1,40,37.67l-.42.5,0,0a4.57,4.57,0,0,1-1.21,1h0c0,2-.62,2.46,2.66,4.07h0l.05,0c.51.25,1,.46,1.51.65a13,13,0,0,0,5.52-6.52A5.22,5.22,0,0,0,48.32,34,28.85,28.85,0,0,0,50,25.57C50.75,13.19,45.19,7.89,42.37,5.76Z"/><path class="cls-7" d="M21.31,43.44a12.28,12.28,0,0,1-5.45-6A13.18,13.18,0,0,1,15,32a26.55,26.55,0,0,1-1-6.43c-.74-12.39,5.21-18.13,8-20.25l0,0a11,11,0,0,1,13.24-.74s4.33-1,7.14,1.17S50.75,13.19,50,25.57A29.17,29.17,0,0,1,48.93,32a13.18,13.18,0,0,1-6.11,11.43"/><path class="cls-8" d="M18.2,26.76c5.49-4.27,7.86-6.46,10.58-10.55,3.14-4.72,7.14-4.71,7.14-4.71l-2,1.8S37,14,38,15.17c1.9,2.21,1.65,2.15,2.79,5.67a17.73,17.73,0,0,0,4.82,7.26"/><path class="cls-7" d="M18.22,26.78a9.75,9.75,0,0,0,.34,1.82A7.21,7.21,0,0,0,22,33.3a7.67,7.67,0,0,0,5,6,7.15,7.15,0,0,0,10,0c4-1.76,4.66-4.39,5-6a7.71,7.71,0,0,0,3.59-5.2"/><path class="cls-6" d="M22,5.34h0l0,0Z"/><path class="cls-4" d="M58,56.6a1,1,0,0,1-1-.76l-.94-3.77a7,7,0,0,0-4.26-4.83l-8.38-2a1,1,0,1,1,.46-1.95l8.45,2,.13,0A9,9,0,0,1,58,51.59L59,55.35a1,1,0,0,1-1,1.24Z"/><path class="cls-4" d="M6,56.6a1,1,0,0,1-1-1.24L6,51.59a9,9,0,0,1,5.55-6.24l.13,0,8.42-2a1,1,0,1,1,.46,1.95l-8.36,2a7,7,0,0,0-4.26,4.83L7,55.84A1,1,0,0,1,6,56.6Z"/><path class="cls-7" d="M25.62,38.72v2.54c-.82,1.52-3.43,2.68-5.31,3.05"/><path class="cls-7" d="M43.67,44.3c-1.64-.47-4.55-1.75-5.28-3V38.86"/><circle class="cls-9" cx="32" cy="49.8" r="2"/><circle class="cls-9" cx="27" cy="48.3" r="2"/><circle class="cls-9" cx="22.5" cy="45.3" r="2"/><circle class="cls-9" cx="37" cy="48.3" r="2"/><circle class="cls-9" cx="41.5" cy="45.3" r="2"/><path class="cls-7" d="M58,55.61A61.92,61.92,0,0,1,32,61.3,62.45,62.45,0,0,1,6,55.6"/></svg>