<svg xmlns="http://www.w3.org/2000/svg" viewBox="0 0 64 64"><defs><style>.cls-1{isolation:isolate;}.cls-2,.cls-22{fill:#165d8c;}.cls-12,.cls-14,.cls-21,.cls-23,.cls-3{fill:none;}.cls-12,.cls-14,.cls-21,.cls-22,.cls-23,.cls-3,.cls-5,.cls-6,.cls-7,.cls-8,.cls-9{stroke:#333;}.cls-22,.cls-23,.cls-3,.cls-8{stroke-linecap:round;}.cls-14,.cls-3{stroke-miterlimit:10;}.cls-12,.cls-22,.cls-23,.cls-3,.cls-5,.cls-6,.cls-7,.cls-8,.cls-9{stroke-width:2px;}.cls-4,.cls-6{fill:#d6edf5;}.cls-5{fill:#cba5a1;}.cls-12,.cls-21,.cls-22,.cls-23,.cls-5,.cls-6,.cls-7,.cls-8,.cls-9{stroke-linejoin:round;}.cls-7{fill:#c0d8dc;}.cls-8,.cls-9{fill:#a15152;}.cls-10{fill:#fbd3ca;}.cls-11{fill:#f2c9c2;}.cls-13{fill:#c1e1f6;}.cls-13,.cls-18{opacity:0.5;}.cls-14,.cls-21{stroke-width:1.5px;}.cls-15{fill:#fff;}.cls-16{fill:#dddddc;}.cls-17{fill:#333;}.cls-18{fill:#c1e0f5;}.cls-19{fill:#d6e8f3;opacity:0.8;mix-blend-mode:multiply;}.cls-20{fill:#68818e;}</style></defs><title>avatar-bernie-sanders-old-man</title><g class="cls-1"><g id="Layer_1" data-name="Layer 1"><path class="cls-2" d="M52.15,39.13,41,35.65H23L11.85,39.13a8,8,0,0,0-5.54,6.55l-1,7.45a61.69,61.69,0,0,0,26.72,6,61.69,61.69,0,0,0,26.7-6l-1-7.46A8,8,0,0,0,52.15,39.13Z"/><path class="cls-3" d="M59,53.19l-1.31-7.5a8,8,0,0,0-5.54-6.55L41,35.65H23L11.85,39.13a8,8,0,0,0-5.54,6.55L5,53.19"/><path class="cls-4" d="M23,58.53a62.41,62.41,0,0,0,9,.66,62.41,62.41,0,0,0,9-.66V35.65H23Z"/><path class="cls-5" d="M23,35.65a30.2,30.2,0,0,0,9,10,30.2,30.2,0,0,0,9-10Z"/><path class="cls-6" d="M23,35.65v7l3,10,3-5,3-2A30.2,30.2,0,0,1,23,35.65Z"/><path class="cls-7" d="M41,35.65v7l-3,10-3-5-3-2A30.2,30.2,0,0,0,41,35.65Z"/><path class="cls-8" d="M31,51.65l-3,6V59c1.32.08,2.65.14,4,.14s2.68-.06,4-.14V57.65l-3-6S31.17,51.61,31,51.65Z"/><polygon class="cls-9" points="35 47.65 33 51.65 31 51.65 29 47.65 32 45.65 35 47.65"/><path class="cls-10" d="M32,40.65a6.46,6.46,0,0,0,5.14-2.48l.65-.6c3.6-1.75,3.79-4,4.21-6.92,2,0,3.55-3,3.78-4.81.34-2.68-1.25-3.51-2.78-3.19v-3c0-5.81-3.06-11.06-11-11.06S21,13.84,21,19.65v3c-1.53-.32-3.13.51-2.78,3.19.23,1.81,1.8,4.81,3.78,4.81.42,3,.61,5.16,4.21,6.92l.65.6A6.46,6.46,0,0,0,32,40.65Z"/><path class="cls-11" d="M45.78,25.84c.34-2.68-1.25-3.51-2.78-3.19v-3c0-5.81-3.06-11.06-11-11.06a15.82,15.82,0,0,0-2.13.14C28.13,14,26.08,22.43,26.08,29.5c0,2.53.12,5.62.33,8.25l.45.42a6.56,6.56,0,0,0,10.28,0l.65-.6c3.6-1.75,3.79-4,4.21-6.92C44,30.65,45.55,27.64,45.78,25.84Z"/><path class="cls-12" d="M32,40.65a6.46,6.46,0,0,0,5.14-2.48l.65-.6c3.6-1.75,3.79-4,4.21-6.92,2,0,3.55-3,3.78-4.81.34-2.68-1.25-3.51-2.78-3.19v-3c0-5.81-3.06-11.06-11-11.06S21,13.84,21,19.65v3c-1.53-.32-3.13.51-2.78,3.19.23,1.81,1.8,4.81,3.78,4.81.42,3,.61,5.16,4.21,6.92l.65.6A6.46,6.46,0,0,0,32,40.65Z"/><path class="cls-12" d="M41,35.65a30.2,30.2,0,0,1-9,10,30.2,30.2,0,0,1-9-10"/><path class="cls-13" d="M40,23.65H35a1.45,1.45,0,0,0-1.05.42,1.56,1.56,0,0,0-.21,2l1.16,1.74a2,2,0,0,0,1.63.87h2.16a2.78,2.78,0,0,0,2.78-2.78v-.68A1.54,1.54,0,0,0,40,23.65Z"/><path class="cls-14" d="M30.5,25.16a2.48,2.48,0,0,1,3,0"/><path class="cls-15" d="M36.25,7.37C28.39,3.94,24.77,7,21.92,9.11a5.94,5.94,0,0,1-4.38,1.23,6,6,0,0,0,2.55,2.1L16,17.65h2v4l2.13,2.12L21,25.16v-5.5c0-5.81,3.06-11.06,11-11.06s11,5.25,11,11.06v4.79l2-2.79,1.5-.75-.9-5.83,2.93-.61-5.67-3.58,1.58-2.29H42.22c-1.63,0-3.15-1.34-4.78-1.34a3.57,3.57,0,0,0-2.57.84"/><path class="cls-16" d="M45,21.65l1.5-.75-.9-5.83,2.3-.48-3.44-2.7-1.61-1,.49-.71c-2.3,0-4.36-1-6-1a7.35,7.35,0,0,0-1.13.07l.93-.49c-7.86-3.43-11.49-.36-14.34,1.74a5.68,5.68,0,0,1-4,1.23,6.38,6.38,0,0,0,1.29.77l-.3.38a3.39,3.39,0,0,0,1.2.29l-3.16,4.54H18v4l2.13,2.12L21,24.9V19.65c0-5.81,3.06-11.06,11-11.06s11,5.25,11,11.06v5Z"/><path class="cls-17" d="M49.16,14.27l-4.91-3.7A6.41,6.41,0,0,0,46,8.43a.5.5,0,0,0-.49-.73,12.82,12.82,0,0,1-3,0A6.6,6.6,0,0,1,40.22,7a7,7,0,0,0-2.78-.75,6.06,6.06,0,0,0-1.05.09c-7.92-3.35-11.76-.48-15.07,2a4.91,4.91,0,0,1-3.68,1h-.09a1,1,0,0,0-.88.51,1,1,0,0,0,0,1,6.34,6.34,0,0,0,1.89,1.88L15.21,17A1,1,0,0,0,16,18.65h1V21a2,2,0,0,0,.82,1.61,8.59,8.59,0,0,1,3.17,4h1v-7c0-3,1-10.06,10-10.06s10,7,10,10.06v7h1.08c1.17-2.73,2.07-3.88,3.32-4.61a2,2,0,0,0,1-2l-.64-4.15L49,15.33a.59.59,0,0,0,.19-1.07ZM34,7.7a17,17,0,0,0-2-.11c-8.85,0-12,6.23-12,12.06v2.59l-1-1V17.15a.5.5,0,0,0-.5-.5h-.77l3-4.36a.5.5,0,0,0-.25-.76,3.92,3.92,0,0,1-.68-.34,6.87,6.87,0,0,0,2.66-1.28C25.18,7.93,28,5.58,34,7.57ZM45.4,20.33,44,21.48V19.65c0-4.64-2-9.54-7.28-11.34a4.1,4.1,0,0,1,.72-.06,5.56,5.56,0,0,1,2,.59,8.11,8.11,0,0,0,2.78.75,6.15,6.15,0,0,0,1.31-.11,2.61,2.61,0,0,1-1,.83.49.49,0,0,0-.15.75,5.25,5.25,0,0,0,.9.87C44,12.43,45.9,14,45.9,14l-1,.2a.5.5,0,0,0-.39.57Z"/><path class="cls-18" d="M25.28,28.65h2.16a2,2,0,0,0,1.63-.87L30.24,26a1.56,1.56,0,0,0-.21-2A1.45,1.45,0,0,0,29,23.65H24a1.54,1.54,0,0,0-1.54,1.54v.68A2.78,2.78,0,0,0,25.28,28.65Z"/><path class="cls-19" d="M26.41,24.9,24.29,27a1.52,1.52,0,0,0,1,.38H26l2.5-2.5Z"/><path class="cls-19" d="M37.73,24.9l-1.92,2,.15.23a.71.71,0,0,0,.59.32h.77l2.5-2.5Z"/><circle class="cls-20" cx="26.5" cy="24.9" r="1"/><path class="cls-21" d="M24,23.65H29a1.45,1.45,0,0,1,1.05.42,1.56,1.56,0,0,1,.21,2l-1.16,1.74a2,2,0,0,1-1.63.87H25.28a2.78,2.78,0,0,1-2.78-2.78v-.68A1.54,1.54,0,0,1,24,23.65Z"/><circle class="cls-20" cx="37.5" cy="24.9" r="1"/><path class="cls-21" d="M40,23.65H35a1.45,1.45,0,0,0-1.05.42,1.56,1.56,0,0,0-.21,2l1.16,1.74a2,2,0,0,0,1.63.87h2.16a2.78,2.78,0,0,0,2.78-2.78v-.68A1.54,1.54,0,0,0,40,23.65Z"/><path class="cls-17" d="M18.83,12.4l-4.3,5.48a.5.5,0,0,0,.4.81l3.08,0-1.66-1.41L19.63,13Z"/><path class="cls-17" d="M20.77,8.68a6.43,6.43,0,0,1-4.53.46.5.5,0,0,0-.55.72,6.3,6.3,0,0,0,3.62,3.25"/><polyline class="cls-22" points="17.03 57.37 15 48.65 18 44.65 16 42.65 20 36.65 23 35.65 23 58.52"/><polyline class="cls-22" points="46.97 57.37 49 48.65 46 44.65 48 42.65 44 36.65 41 35.65 41 58.54"/><path class="cls-23" d="M59,53a61.69,61.69,0,0,1-27,6.16A61.69,61.69,0,0,1,5,53"/></g></g></svg>